<?xml version="1.0" encoding="UTF-8" standalone="no"?>
<!DOCTYPE svg PUBLIC "-//W3C//DTD SVG 1.1//EN"
 "http://www.w3.org/Graphics/SVG/1.1/DTD/svg11.dtd">
<!-- Generated by graphviz version 2.43.0 (0)
 -->
<!-- Title: G Pages: 1 -->
<svg width="3458pt" height="388pt"
 viewBox="0.00 0.00 3458.00 388.00" xmlns="http://www.w3.org/2000/svg" xmlns:xlink="http://www.w3.org/1999/xlink">
<g id="graph0" class="graph" transform="scale(1 1) rotate(0) translate(4 384)">
<title>G</title>
<polygon fill="#1e1e2e" stroke="transparent" points="-4,4 -4,-384 3454,-384 3454,4 -4,4"/>
<g id="clust1" class="cluster">
<title>cluster_0</title>
<path fill="#1e1e2e" stroke="#45475a" stroke-dasharray="5,2" d="M20,-120C20,-120 338,-120 338,-120 344,-120 350,-126 350,-132 350,-132 350,-360 350,-360 350,-366 344,-372 338,-372 338,-372 20,-372 20,-372 14,-372 8,-366 8,-360 8,-360 8,-132 8,-132 8,-126 14,-120 20,-120"/>
<text text-anchor="middle" x="179" y="-360" font-family="Consolas,Monaco,monospace" font-size="10.00" fill="#6c7086">STAGE 0</text>
</g>
<g id="clust2" class="cluster">
<title>cluster_1</title>
<path fill="#1e1e2e" stroke="#45475a" stroke-dasharray="5,2" d="M398,-120C398,-120 716,-120 716,-120 722,-120 728,-126 728,-132 728,-132 728,-360 728,-360 728,-366 722,-372 716,-372 716,-372 398,-372 398,-372 392,-372 386,-366 386,-360 386,-360 386,-132 386,-132 386,-126 392,-120 398,-120"/>
<text text-anchor="middle" x="557" y="-360" font-family="Consolas,Monaco,monospace" font-size="10.00" fill="#6c7086">STAGE 1</text>
</g>
<g id="clust3" class="cluster">
<title>cluster_2</title>
<path fill="#1e1e2e" stroke="#45475a" stroke-dasharray="5,2" d="M776,-233C776,-233 1094,-233 1094,-233 1100,-233 1106,-239 1106,-245 1106,-245 1106,-360 1106,-360 1106,-366 1100,-372 1094,-372 1094,-372 776,-372 776,-372 770,-372 764,-366 764,-360 764,-360 764,-245 764,-245 764,-239 770,-233 776,-233"/>
<text text-anchor="middle" x="935" y="-360" font-family="Consolas,Monaco,monospace" font-size="10.00" fill="#6c7086">STAGE 2</text>
</g>
<g id="clust4" class="cluster">
<title>cluster_3</title>
<path fill="#1e1e2e" stroke="#45475a" stroke-dasharray="5,2" d="M1154,-120C1154,-120 1472,-120 1472,-120 1478,-120 1484,-126 1484,-132 1484,-132 1484,-360 1484,-360 1484,-366 1478,-372 1472,-372 1472,-372 1154,-372 1154,-372 1148,-372 1142,-366 1142,-360 1142,-360 1142,-132 1142,-132 1142,-126 1148,-120 1154,-120"/>
<text text-anchor="middle" x="1313" y="-360" font-family="Consolas,Monaco,monospace" font-size="10.00" fill="#6c7086">STAGE 3</text>
</g>
<g id="clust5" class="cluster">
<title>cluster_4</title>
<path fill="#1e1e2e" stroke="#45475a" stroke-dasharray="5,2" d="M1532,-64C1532,-64 1850,-64 1850,-64 1856,-64 1862,-70 1862,-76 1862,-76 1862,-304 1862,-304 1862,-310 1856,-316 1850,-316 1850,-316 1532,-316 1532,-316 1526,-316 1520,-310 1520,-304 1520,-304 1520,-76 1520,-76 1520,-70 1526,-64 1532,-64"/>
<text text-anchor="middle" x="1691" y="-304" font-family="Consolas,Monaco,monospace" font-size="10.00" fill="#6c7086">STAGE 4</text>
</g>
<g id="clust6" class="cluster">
<title>cluster_5</title>
<path fill="#1e1e2e" stroke="#45475a" stroke-dasharray="5,2" d="M1910,-8C1910,-8 2228,-8 2228,-8 2234,-8 2240,-14 2240,-20 2240,-20 2240,-248 2240,-248 2240,-254 2234,-260 2228,-260 2228,-260 1910,-260 1910,-260 1904,-260 1898,-254 1898,-248 1898,-248 1898,-20 1898,-20 1898,-14 1904,-8 1910,-8"/>
<text text-anchor="middle" x="2069" y="-248" font-family="Consolas,Monaco,monospace" font-size="10.00" fill="#6c7086">STAGE 5</text>
</g>
<g id="clust7" class="cluster">
<title>cluster_6</title>
<path fill="#1e1e2e" stroke="#45475a" stroke-dasharray="5,2" d="M2288,-64C2288,-64 2606,-64 2606,-64 2612,-64 2618,-70 2618,-76 2618,-76 2618,-191 2618,-191 2618,-197 2612,-203 2606,-203 2606,-203 2288,-203 2288,-203 2282,-203 2276,-197 2276,-191 2276,-191 2276,-76 2276,-76 2276,-70 2282,-64 2288,-64"/>
<text text-anchor="middle" x="2447" y="-191" font-family="Consolas,Monaco,monospace" font-size="10.00" fill="#6c7086">STAGE 6</text>
</g>
<g id="clust8" class="cluster">
<title>cluster_7</title>
<path fill="#1e1e2e" stroke="#45475a" stroke-dasharray="5,2" d="M2666,-64C2666,-64 2984,-64 2984,-64 2990,-64 2996,-70 2996,-76 2996,-76 2996,-191 2996,-191 2996,-197 2990,-203 2984,-203 2984,-203 2666,-203 2666,-203 2660,-203 2654,-197 2654,-191 2654,-191 2654,-76 2654,-76 2654,-70 2660,-64 2666,-64"/>
<text text-anchor="middle" x="2825" y="-191" font-family="Consolas,Monaco,monospace" font-size="10.00" fill="#6c7086">STAGE 7</text>
</g>
<g id="clust9" class="cluster">
<title>cluster_8</title>
<path fill="#1e1e2e" stroke="#45475a" stroke-dasharray="5,2" d="M3044,-64C3044,-64 3207,-64 3207,-64 3213,-64 3219,-70 3219,-76 3219,-76 3219,-191 3219,-191 3219,-197 3213,-203 3207,-203 3207,-203 3044,-203 3044,-203 3038,-203 3032,-197 3032,-191 3032,-191 3032,-76 3032,-76 3032,-70 3038,-64 3044,-64"/>
<text text-anchor="middle" x="3125.5" y="-191" font-family="Consolas,Monaco,monospace" font-size="10.00" fill="#6c7086">STAGE 8</text>
</g>
<g id="clust10" class="cluster">
<title>cluster_9</title>
<path fill="#1e1e2e" stroke="#45475a" stroke-dasharray="5,2" d="M3267,-64C3267,-64 3430,-64 3430,-64 3436,-64 3442,-70 3442,-76 3442,-76 3442,-191 3442,-191 3442,-197 3436,-203 3430,-203 3430,-203 3267,-203 3267,-203 3261,-203 3255,-197 3255,-191 3255,-191 3255,-76 3255,-76 3255,-70 3261,-64 3267,-64"/>
<text text-anchor="middle" x="3348.5" y="-191" font-family="Consolas,Monaco,monospace" font-size="10.00" fill="#6c7086">STAGE 9</text>
</g>
<!-- 140721646260960 -->
<g id="node1" class="node">
<title>140721646260960</title>
<path fill="#f9e2af" stroke="black" stroke-width="0" d="M313,-328C313,-328 45,-328 45,-328 39,-328 33,-322 33,-316 33,-316 33,-270 33,-270 33,-264 39,-258 45,-258 45,-258 313,-258 313,-258 319,-258 325,-264 325,-270 325,-270 325,-316 325,-316 325,-322 319,-328 313,-328"/>
<text text-anchor="middle" x="179" y="-308.2" font-family="Consolas,Monaco,monospace" font-size="11.00" fill="#11111b">Input / Param</text>
<text text-anchor="middle" x="179" y="-296.2" font-family="Consolas,Monaco,monospace" font-size="11.00" fill="#11111b">Shape: [4, 2]</text>
<text text-anchor="middle" x="179" y="-284.2" font-family="Consolas,Monaco,monospace" font-size="11.00" fill="#11111b">Data: &#160;[ 0.0000, &#160;0.0000, &#160;0.0000, ...]</text>
<text text-anchor="middle" x="179" y="-272.2" font-family="Consolas,Monaco,monospace" font-size="11.00" fill="#11111b">Grad: &#160;[ 0.0000, &#160;0.0000, &#45;0.4231, ...]</text>
</g>
<!-- 140721646262880 -->
<g id="node3" class="node">
<title>140721646262880</title>
<path fill="#89b4fa" stroke="black" stroke-width="0" d="M691,-328C691,-328 423,-328 423,-328 417,-328 411,-322 411,-316 411,-316 411,-270 411,-270 411,-264 417,-258 423,-258 423,-258 691,-258 691,-258 697,-258 703,-264 703,-270 703,-270 703,-316 703,-316 703,-322 697,-328 691,-328"/>
<text text-anchor="middle" x="557" y="-308.2" font-family="Consolas,Monaco,monospace" font-size="11.00" fill="#11111b">*</text>
<text text-anchor="middle" x="557" y="-296.2" font-family="Consolas,Monaco,monospace" font-size="11.00" fill="#11111b">Shape: [4, 16]</text>
<text text-anchor="middle" x="557" y="-284.2" font-family="Consolas,Monaco,monospace" font-size="11.00" fill="#11111b">Data: &#160;[ 0.0000, &#160;0.0000, &#160;0.0000, ...]</text>
<text text-anchor="middle" x="557" y="-272.2" font-family="Consolas,Monaco,monospace" font-size="11.00" fill="#11111b">Grad: &#160;[ 0.0000, &#160;0.0000, &#160;0.0000, ...]</text>
</g>
<!-- 140721646260960&#45;&gt;140721646262880 -->
<g id="edge1" class="edge">
<title>140721646260960&#45;&gt;140721646262880</title>
<path fill="none" stroke="#a6adc8" stroke-width="2" stroke-opacity="0.376471" d="M325.1,-293C350.81,-293 377.64,-293 403.54,-293"/>
<polygon fill="#a6adc8" fill-opacity="0.376471" stroke="#a6adc8" stroke-width="2" stroke-opacity="0.376471" points="403.82,-295.45 410.82,-293 403.82,-290.55 403.82,-295.45"/>
</g>
<!-- 140721646262560 -->
<g id="node2" class="node">
<title>140721646262560</title>
<path fill="#f9e2af" stroke="black" stroke-width="0" d="M313,-215C313,-215 45,-215 45,-215 39,-215 33,-209 33,-203 33,-203 33,-157 33,-157 33,-151 39,-145 45,-145 45,-145 313,-145 313,-145 319,-145 325,-151 325,-157 325,-157 325,-203 325,-203 325,-209 319,-215 313,-215"/>
<text text-anchor="middle" x="179" y="-195.2" font-family="Consolas,Monaco,monospace" font-size="11.00" fill="#11111b">Input / Param</text>
<text text-anchor="middle" x="179" y="-183.2" font-family="Consolas,Monaco,monospace" font-size="11.00" fill="#11111b">Shape: [2, 16]</text>
<text text-anchor="middle" x="179" y="-171.2" font-family="Consolas,Monaco,monospace" font-size="11.00" fill="#11111b">Data: &#160;[ 0.3424, &#45;0.3655, &#160;0.3230, ...]</text>
<text text-anchor="middle" x="179" y="-159.2" font-family="Consolas,Monaco,monospace" font-size="11.00" fill="#11111b">Grad: &#160;[ 0.1925, &#160;0.0000, &#45;0.0075, ...]</text>
</g>
<!-- 140721646262560&#45;&gt;140721646262880 -->
<g id="edge2" class="edge">
<title>140721646262560&#45;&gt;140721646262880</title>
<path fill="none" stroke="#a6adc8" stroke-width="2" stroke-opacity="0.376471" d="M296.65,-215.06C339.74,-228.01 388.69,-242.72 432.37,-255.85"/>
<polygon fill="#a6adc8" fill-opacity="0.376471" stroke="#a6adc8" stroke-width="2" stroke-opacity="0.376471" points="431.93,-258.27 439.34,-257.94 433.34,-253.58 431.93,-258.27"/>
</g>
<!-- 140721646261280 -->
<g id="node5" class="node">
<title>140721646261280</title>
<path fill="#89b4fa" stroke="black" stroke-width="0" d="M1069,-328C1069,-328 801,-328 801,-328 795,-328 789,-322 789,-316 789,-316 789,-270 789,-270 789,-264 795,-258 801,-258 801,-258 1069,-258 1069,-258 1075,-258 1081,-264 1081,-270 1081,-270 1081,-316 1081,-316 1081,-322 1075,-328 1069,-328"/>
<text text-anchor="middle" x="935" y="-308.2" font-family="Consolas,Monaco,monospace" font-size="11.00" fill="#11111b">+</text>
<text text-anchor="middle" x="935" y="-296.2" font-family="Consolas,Monaco,monospace" font-size="11.00" fill="#11111b">Shape: [4, 16]</text>
<text text-anchor="middle" x="935" y="-284.2" font-family="Consolas,Monaco,monospace" font-size="11.00" fill="#11111b">Data: &#160;[ 0.0000, &#160;0.0000, &#160;0.0000, ...]</text>
<text text-anchor="middle" x="935" y="-272.2" font-family="Consolas,Monaco,monospace" font-size="11.00" fill="#11111b">Grad: &#160;[ 0.0000, &#160;0.0000, &#160;0.0000, ...]</text>
</g>
<!-- 140721646262880&#45;&gt;140721646261280 -->
<g id="edge3" class="edge">
<title>140721646262880&#45;&gt;140721646261280</title>
<path fill="none" stroke="#a6adc8" stroke-width="2" stroke-opacity="0.376471" d="M703.1,-293C728.81,-293 755.64,-293 781.54,-293"/>
<polygon fill="#a6adc8" fill-opacity="0.376471" stroke="#a6adc8" stroke-width="2" stroke-opacity="0.376471" points="781.82,-295.45 788.82,-293 781.82,-290.55 781.82,-295.45"/>
</g>
<!-- 140721646262720 -->
<g id="node4" class="node">
<title>140721646262720</title>
<path fill="#f9e2af" stroke="black" stroke-width="0" d="M691,-215C691,-215 423,-215 423,-215 417,-215 411,-209 411,-203 411,-203 411,-157 411,-157 411,-151 417,-145 423,-145 423,-145 691,-145 691,-145 697,-145 703,-151 703,-157 703,-157 703,-203 703,-203 703,-209 697,-215 691,-215"/>
<text text-anchor="middle" x="557" y="-195.2" font-family="Consolas,Monaco,monospace" font-size="11.00" fill="#11111b">Input / Param</text>
<text text-anchor="middle" x="557" y="-183.2" font-family="Consolas,Monaco,monospace" font-size="11.00" fill="#11111b">Shape: [1, 16]</text>
<text text-anchor="middle" x="557" y="-171.2" font-family="Consolas,Monaco,monospace" font-size="11.00" fill="#11111b">Data: &#160;[ 0.0000, &#160;0.0000, &#160;0.0000, ...]</text>
<text text-anchor="middle" x="557" y="-159.2" font-family="Consolas,Monaco,monospace" font-size="11.00" fill="#11111b">Grad: &#160;[ 0.0285, &#160;0.0000, &#45;0.0075, ...]</text>
</g>
<!-- 140721646262720&#45;&gt;140721646261280 -->
<g id="edge4" class="edge">
<title>140721646262720&#45;&gt;140721646261280</title>
<path fill="none" stroke="#a6adc8" stroke-width="2" stroke-opacity="0.376471" d="M674.65,-215.06C717.74,-228.01 766.69,-242.72 810.37,-255.85"/>
<polygon fill="#a6adc8" fill-opacity="0.376471" stroke="#a6adc8" stroke-width="2" stroke-opacity="0.376471" points="809.93,-258.27 817.34,-257.94 811.34,-253.58 809.93,-258.27"/>
</g>
<!-- 140721646261440 -->
<g id="node6" class="node">
<title>140721646261440</title>
<path fill="#a6e3a1" stroke="black" stroke-width="0" d="M1447,-328C1447,-328 1179,-328 1179,-328 1173,-328 1167,-322 1167,-316 1167,-316 1167,-270 1167,-270 1167,-264 1173,-258 1179,-258 1179,-258 1447,-258 1447,-258 1453,-258 1459,-264 1459,-270 1459,-270 1459,-316 1459,-316 1459,-322 1453,-328 1447,-328"/>
<text text-anchor="middle" x="1313" y="-308.2" font-family="Consolas,Monaco,monospace" font-size="11.00" fill="#11111b">ReLU</text>
<text text-anchor="middle" x="1313" y="-296.2" font-family="Consolas,Monaco,monospace" font-size="11.00" fill="#11111b">Shape: [4, 16]</text>
<text text-anchor="middle" x="1313" y="-284.2" font-family="Consolas,Monaco,monospace" font-size="11.00" fill="#11111b">Data: &#160;[ 0.0000, &#160;0.0000, &#160;0.0000, ...]</text>
<text text-anchor="middle" x="1313" y="-272.2" font-family="Consolas,Monaco,monospace" font-size="11.00" fill="#11111b">Grad: &#160;[ 0.0000, &#160;0.0000, &#160;0.0000, ...]</text>
</g>
<!-- 140721646261280&#45;&gt;140721646261440 -->
<g id="edge5" class="edge">
<title>140721646261280&#45;&gt;140721646261440</title>
<path fill="none" stroke="#a6adc8" stroke-width="2" stroke-opacity="0.376471" d="M1081.1,-293C1106.81,-293 1133.64,-293 1159.54,-293"/>
<polygon fill="#a6adc8" fill-opacity="0.376471" stroke="#a6adc8" stroke-width="2" stroke-opacity="0.376471" points="1159.82,-295.45 1166.82,-293 1159.82,-290.55 1159.82,-295.45"/>
</g>
<!-- 140721646263360 -->
<g id="node8" class="node">
<title>140721646263360</title>
<path fill="#89b4fa" stroke="black" stroke-width="0" d="M1825,-272C1825,-272 1557,-272 1557,-272 1551,-272 1545,-266 1545,-260 1545,-260 1545,-214 1545,-214 1545,-208 1551,-202 1557,-202 1557,-202 1825,-202 1825,-202 1831,-202 1837,-208 1837,-214 1837,-214 1837,-260 1837,-260 1837,-266 1831,-272 1825,-272"/>
<text text-anchor="middle" x="1691" y="-252.2" font-family="Consolas,Monaco,monospace" font-size="11.00" fill="#11111b">*</text>
<text text-anchor="middle" x="1691" y="-240.2" font-family="Consolas,Monaco,monospace" font-size="11.00" fill="#11111b">Shape: [4, 1]</text>
<text text-anchor="middle" x="1691" y="-228.2" font-family="Consolas,Monaco,monospace" font-size="11.00" fill="#11111b">Data: &#160;[ 0.0000, &#160;0.0692, &#160;0.9549, ...]</text>
<text text-anchor="middle" x="1691" y="-216.2" font-family="Consolas,Monaco,monospace" font-size="11.00" fill="#11111b">Grad: &#160;[ 0.0000, &#45;0.4654, &#45;0.0225, ...]</text>
</g>
<!-- 140721646261440&#45;&gt;140721646263360 -->
<g id="edge6" class="edge">
<title>140721646261440&#45;&gt;140721646263360</title>
<path fill="none" stroke="#a6adc8" stroke-width="2" stroke-opacity="0.376471" d="M1459.1,-271.39C1484.92,-267.54 1511.87,-263.53 1537.87,-259.66"/>
<polygon fill="#a6adc8" fill-opacity="0.376471" stroke="#a6adc8" stroke-width="2" stroke-opacity="0.376471" points="1538.26,-262.08 1544.82,-258.62 1537.53,-257.23 1538.26,-262.08"/>
</g>
<!-- 140721646263040 -->
<g id="node7" class="node">
<title>140721646263040</title>
<path fill="#f9e2af" stroke="black" stroke-width="0" d="M1447,-215C1447,-215 1179,-215 1179,-215 1173,-215 1167,-209 1167,-203 1167,-203 1167,-157 1167,-157 1167,-151 1173,-145 1179,-145 1179,-145 1447,-145 1447,-145 1453,-145 1459,-151 1459,-157 1459,-157 1459,-203 1459,-203 1459,-209 1453,-215 1447,-215"/>
<text text-anchor="middle" x="1313" y="-195.2" font-family="Consolas,Monaco,monospace" font-size="11.00" fill="#11111b">Input / Param</text>
<text text-anchor="middle" x="1313" y="-183.2" font-family="Consolas,Monaco,monospace" font-size="11.00" fill="#11111b">Shape: [16, 1]</text>
<text text-anchor="middle" x="1313" y="-171.2" font-family="Consolas,Monaco,monospace" font-size="11.00" fill="#11111b">Data: &#160;[ 0.3523, &#45;0.3761, &#160;0.3323, ...]</text>
<text text-anchor="middle" x="1313" y="-159.2" font-family="Consolas,Monaco,monospace" font-size="11.00" fill="#11111b">Grad: &#160;[ 0.2004, &#160;0.0000, &#45;0.0073, ...]</text>
</g>
<!-- 140721646263040&#45;&gt;140721646263360 -->
<g id="edge7" class="edge">
<title>140721646263040&#45;&gt;140721646263360</title>
<path fill="none" stroke="#a6adc8" stroke-width="2" stroke-opacity="0.376471" d="M1459.1,-202C1484.92,-205.91 1511.87,-210 1537.87,-213.94"/>
<polygon fill="#a6adc8" fill-opacity="0.376471" stroke="#a6adc8" stroke-width="2" stroke-opacity="0.376471" points="1537.53,-216.36 1544.82,-214.99 1538.26,-211.52 1537.53,-216.36"/>
</g>
<!-- 140721646261600 -->
<g id="node10" class="node">
<title>140721646261600</title>
<path fill="#89b4fa" stroke="black" stroke-width="0" d="M2203,-216C2203,-216 1935,-216 1935,-216 1929,-216 1923,-210 1923,-204 1923,-204 1923,-158 1923,-158 1923,-152 1929,-146 1935,-146 1935,-146 2203,-146 2203,-146 2209,-146 2215,-152 2215,-158 2215,-158 2215,-204 2215,-204 2215,-210 2209,-216 2203,-216"/>
<text text-anchor="middle" x="2069" y="-196.2" font-family="Consolas,Monaco,monospace" font-size="11.00" fill="#11111b">+</text>
<text text-anchor="middle" x="2069" y="-184.2" font-family="Consolas,Monaco,monospace" font-size="11.00" fill="#11111b">Shape: [4, 1]</text>
<text text-anchor="middle" x="2069" y="-172.2" font-family="Consolas,Monaco,monospace" font-size="11.00" fill="#11111b">Data: &#160;[ 0.0000, &#160;0.0692, &#160;0.9549, ...]</text>
<text text-anchor="middle" x="2069" y="-160.2" font-family="Consolas,Monaco,monospace" font-size="11.00" fill="#11111b">Grad: &#160;[ 0.0000, &#45;0.4654, &#45;0.0225, ...]</text>
</g>
<!-- 140721646263360&#45;&gt;140721646261600 -->
<g id="edge8" class="edge">
<title>140721646263360&#45;&gt;140721646261600</title>
<path fill="none" stroke="#a6adc8" stroke-width="2" stroke-opacity="0.376471" d="M1837.1,-215.39C1862.92,-211.54 1889.87,-207.53 1915.87,-203.66"/>
<polygon fill="#a6adc8" fill-opacity="0.376471" stroke="#a6adc8" stroke-width="2" stroke-opacity="0.376471" points="1916.26,-206.08 1922.82,-202.62 1915.53,-201.23 1916.26,-206.08"/>
</g>
<!-- 140721646263200 -->
<g id="node9" class="node">
<title>140721646263200</title>
<path fill="#f9e2af" stroke="black" stroke-width="0" d="M1747.5,-159C1747.5,-159 1634.5,-159 1634.5,-159 1628.5,-159 1622.5,-153 1622.5,-147 1622.5,-147 1622.5,-101 1622.5,-101 1622.5,-95 1628.5,-89 1634.5,-89 1634.5,-89 1747.5,-89 1747.5,-89 1753.5,-89 1759.5,-95 1759.5,-101 1759.5,-101 1759.5,-147 1759.5,-147 1759.5,-153 1753.5,-159 1747.5,-159"/>
<text text-anchor="middle" x="1691" y="-139.2" font-family="Consolas,Monaco,monospace" font-size="11.00" fill="#11111b">Input / Param</text>
<text text-anchor="middle" x="1691" y="-127.2" font-family="Consolas,Monaco,monospace" font-size="11.00" fill="#11111b">Shape: [1, 1]</text>
<text text-anchor="middle" x="1691" y="-115.2" font-family="Consolas,Monaco,monospace" font-size="11.00" fill="#11111b">Data: &#160;[ 0.0000]</text>
<text text-anchor="middle" x="1691" y="-103.2" font-family="Consolas,Monaco,monospace" font-size="11.00" fill="#11111b">Grad: &#160;[ 0.0808]</text>
</g>
<!-- 140721646263200&#45;&gt;140721646261600 -->
<g id="edge9" class="edge">
<title>140721646263200&#45;&gt;140721646261600</title>
<path fill="none" stroke="#a6adc8" stroke-width="2" stroke-opacity="0.376471" d="M1759.66,-134.26C1803.25,-140.86 1861.74,-149.73 1916.05,-157.97"/>
<polygon fill="#a6adc8" fill-opacity="0.376471" stroke="#a6adc8" stroke-width="2" stroke-opacity="0.376471" points="1915.71,-160.39 1923,-159.02 1916.44,-155.55 1915.71,-160.39"/>
</g>
<!-- 140721646263520 -->
<g id="node12" class="node">
<title>140721646263520</title>
<path fill="#89b4fa" stroke="black" stroke-width="0" d="M2581,-159C2581,-159 2313,-159 2313,-159 2307,-159 2301,-153 2301,-147 2301,-147 2301,-101 2301,-101 2301,-95 2307,-89 2313,-89 2313,-89 2581,-89 2581,-89 2587,-89 2593,-95 2593,-101 2593,-101 2593,-147 2593,-147 2593,-153 2587,-159 2581,-159"/>
<text text-anchor="middle" x="2447" y="-139.2" font-family="Consolas,Monaco,monospace" font-size="11.00" fill="#11111b">&#45;</text>
<text text-anchor="middle" x="2447" y="-127.2" font-family="Consolas,Monaco,monospace" font-size="11.00" fill="#11111b">Shape: [4, 1]</text>
<text text-anchor="middle" x="2447" y="-115.2" font-family="Consolas,Monaco,monospace" font-size="11.00" fill="#11111b">Data: &#160;[ 0.0000, &#45;0.9308, &#45;0.0451, ...]</text>
<text text-anchor="middle" x="2447" y="-103.2" font-family="Consolas,Monaco,monospace" font-size="11.00" fill="#11111b">Grad: &#160;[ 0.0000, &#45;0.4654, &#45;0.0225, ...]</text>
</g>
<!-- 140721646261600&#45;&gt;140721646263520 -->
<g id="edge10" class="edge">
<title>140721646261600&#45;&gt;140721646263520</title>
<path fill="none" stroke="#a6adc8" stroke-width="2" stroke-opacity="0.376471" d="M2215.1,-159C2240.92,-155.09 2267.87,-151 2293.87,-147.06"/>
<polygon fill="#a6adc8" fill-opacity="0.376471" stroke="#a6adc8" stroke-width="2" stroke-opacity="0.376471" points="2294.26,-149.48 2300.82,-146.01 2293.53,-144.64 2294.26,-149.48"/>
</g>
<!-- 140721646261120 -->
<g id="node11" class="node">
<title>140721646261120</title>
<path fill="#f9e2af" stroke="black" stroke-width="0" d="M2203,-103C2203,-103 1935,-103 1935,-103 1929,-103 1923,-97 1923,-91 1923,-91 1923,-45 1923,-45 1923,-39 1929,-33 1935,-33 1935,-33 2203,-33 2203,-33 2209,-33 2215,-39 2215,-45 2215,-45 2215,-91 2215,-91 2215,-97 2209,-103 2203,-103"/>
<text text-anchor="middle" x="2069" y="-83.2" font-family="Consolas,Monaco,monospace" font-size="11.00" fill="#11111b">Input / Param</text>
<text text-anchor="middle" x="2069" y="-71.2" font-family="Consolas,Monaco,monospace" font-size="11.00" fill="#11111b">Shape: [4, 1]</text>
<text text-anchor="middle" x="2069" y="-59.2" font-family="Consolas,Monaco,monospace" font-size="11.00" fill="#11111b">Data: &#160;[ 0.0000, &#160;1.0000, &#160;1.0000, ...]</text>
<text text-anchor="middle" x="2069" y="-47.2" font-family="Consolas,Monaco,monospace" font-size="11.00" fill="#11111b">Grad: &#160;[ 0.0000, &#160;0.4654, &#160;0.0225, ...]</text>
</g>
<!-- 140721646261120&#45;&gt;140721646263520 -->
<g id="edge11" class="edge">
<title>140721646261120&#45;&gt;140721646263520</title>
<path fill="none" stroke="#a6adc8" stroke-width="2" stroke-opacity="0.376471" d="M2215.1,-89.61C2240.92,-93.46 2267.87,-97.47 2293.87,-101.34"/>
<polygon fill="#a6adc8" fill-opacity="0.376471" stroke="#a6adc8" stroke-width="2" stroke-opacity="0.376471" points="2293.53,-103.77 2300.82,-102.38 2294.26,-98.92 2293.53,-103.77"/>
</g>
<!-- 140721646263680 -->
<g id="node13" class="node">
<title>140721646263680</title>
<path fill="#89b4fa" stroke="black" stroke-width="0" d="M2959,-159C2959,-159 2691,-159 2691,-159 2685,-159 2679,-153 2679,-147 2679,-147 2679,-101 2679,-101 2679,-95 2685,-89 2691,-89 2691,-89 2959,-89 2959,-89 2965,-89 2971,-95 2971,-101 2971,-101 2971,-147 2971,-147 2971,-153 2965,-159 2959,-159"/>
<text text-anchor="middle" x="2825" y="-139.2" font-family="Consolas,Monaco,monospace" font-size="11.00" fill="#11111b">^2.000000</text>
<text text-anchor="middle" x="2825" y="-127.2" font-family="Consolas,Monaco,monospace" font-size="11.00" fill="#11111b">Shape: [4, 1]</text>
<text text-anchor="middle" x="2825" y="-115.2" font-family="Consolas,Monaco,monospace" font-size="11.00" fill="#11111b">Data: &#160;[ 0.0000, &#160;0.8665, &#160;0.0020, ...]</text>
<text text-anchor="middle" x="2825" y="-103.2" font-family="Consolas,Monaco,monospace" font-size="11.00" fill="#11111b">Grad: &#160;[ 0.2500, &#160;0.2500, &#160;0.2500, ...]</text>
</g>
<!-- 140721646263520&#45;&gt;140721646263680 -->
<g id="edge12" class="edge">
<title>140721646263520&#45;&gt;140721646263680</title>
<path fill="none" stroke="#a6adc8" stroke-width="2" stroke-opacity="0.376471" d="M2593.1,-124C2618.81,-124 2645.64,-124 2671.54,-124"/>
<polygon fill="#a6adc8" fill-opacity="0.376471" stroke="#a6adc8" stroke-width="2" stroke-opacity="0.376471" points="2671.82,-126.45 2678.82,-124 2671.82,-121.55 2671.82,-126.45"/>
</g>
<!-- 140721646263840 -->
<g id="node14" class="node">
<title>140721646263840</title>
<path fill="#f38ba8" stroke="black" stroke-width="0" d="M3182,-159C3182,-159 3069,-159 3069,-159 3063,-159 3057,-153 3057,-147 3057,-147 3057,-101 3057,-101 3057,-95 3063,-89 3069,-89 3069,-89 3182,-89 3182,-89 3188,-89 3194,-95 3194,-101 3194,-101 3194,-147 3194,-147 3194,-153 3188,-159 3182,-159"/>
<text text-anchor="middle" x="3125.5" y="-139.2" font-family="Consolas,Monaco,monospace" font-size="11.00" fill="#11111b">sum</text>
<text text-anchor="middle" x="3125.5" y="-127.2" font-family="Consolas,Monaco,monospace" font-size="11.00" fill="#11111b">Shape: [1]</text>
<text text-anchor="middle" x="3125.5" y="-115.2" font-family="Consolas,Monaco,monospace" font-size="11.00" fill="#11111b">Data: &#160;[ 2.1626]</text>
<text text-anchor="middle" x="3125.5" y="-103.2" font-family="Consolas,Monaco,monospace" font-size="11.00" fill="#11111b">Grad: &#160;[ 0.2500]</text>
</g>
<!-- 140721646263680&#45;&gt;140721646263840 -->
<g id="edge13" class="edge">
<title>140721646263680&#45;&gt;140721646263840</title>
<path fill="none" stroke="#a6adc8" stroke-width="2" stroke-opacity="0.376471" d="M2971.32,-124C2998.46,-124 3025.77,-124 3049.67,-124"/>
<polygon fill="#a6adc8" fill-opacity="0.376471" stroke="#a6adc8" stroke-width="2" stroke-opacity="0.376471" points="3049.97,-126.45 3056.97,-124 3049.97,-121.55 3049.97,-126.45"/>
</g>
<!-- 140721646261760 -->
<g id="node15" class="node">
<title>140721646261760</title>
<path fill="#f38ba8" stroke="black" stroke-width="0" d="M3405,-159C3405,-159 3292,-159 3292,-159 3286,-159 3280,-153 3280,-147 3280,-147 3280,-101 3280,-101 3280,-95 3286,-89 3292,-89 3292,-89 3405,-89 3405,-89 3411,-89 3417,-95 3417,-101 3417,-101 3417,-147 3417,-147 3417,-153 3411,-159 3405,-159"/>
<text text-anchor="middle" x="3348.5" y="-139.2" font-family="Consolas,Monaco,monospace" font-size="11.00" fill="#11111b">MSE</text>
<text text-anchor="middle" x="3348.5" y="-127.2" font-family="Consolas,Monaco,monospace" font-size="11.00" fill="#11111b">Shape: [1]</text>
<text text-anchor="middle" x="3348.5" y="-115.2" font-family="Consolas,Monaco,monospace" font-size="11.00" fill="#11111b">Data: &#160;[ 0.5406]</text>
<text text-anchor="middle" x="3348.5" y="-103.2" font-family="Consolas,Monaco,monospace" font-size="11.00" fill="#11111b">Grad: &#160;[ 1.0000]</text>
</g>
<!-- 140721646263840&#45;&gt;140721646261760 -->
<g id="edge14" class="edge">
<title>140721646263840&#45;&gt;140721646261760</title>
<path fill="none" stroke="#a6adc8" stroke-width="2" stroke-opacity="0.376471" d="M3194.01,-124C3218.84,-124 3247.1,-124 3272.55,-124"/>
<polygon fill="#a6adc8" fill-opacity="0.376471" stroke="#a6adc8" stroke-width="2" stroke-opacity="0.376471" points="3272.64,-126.45 3279.64,-124 3272.64,-121.55 3272.64,-126.45"/>
</g>
</g>
</svg>
